{
  "extensionsUsed": [
    "KHR_implicit_shapes",
    "KHR_physics_rigid_bodies"
  ],
  "extensionsRequired": [
    "KHR_implicit_shapes",
    "KHR_physics_rigid_bodies"
  ],
  "accessors": [
    {
      "bufferView": 0,
      "componentType": 5126,
      "count": 8,
      "type": "VEC3",
      "max": [
        0.5,
        0.5,
        0.5
      ],
      "min": [
        -0.5,
        -0.5,
        -0.5
      ],
      "name": "Positions Accessor"
    },
    {
      "bufferView": 1,
      "componentType": 5125,
      "count": 36,
      "type": "SCALAR",
      "name": "Indices Accessor"
    }
  ],
  "asset": {
    "generator": "glTF Asset Generator",
    "version": "2.0"
  },
  "buffers": [
    {
      "uri": "RigidBodies_MotionProperties_06.bin",
      "byteLength": 240
    }
  ],
  "bufferViews": [
    {
      "buffer": 0,
      "byteLength": 96,
      "name": "Positions"
    },
    {
      "buffer": 0,
      "byteOffset": 96,
      "byteLength": 144,
      "name": "Indices"
    }
  ],
  "meshes": [
    {
      "primitives": [
        {
          "attributes": {
            "POSITION": 0
          },
          "indices": 1
        }
      ]
    }
  ],
  "nodes": [
    {
      "mesh": 0,
      "translation": [
        -3.0,
        0.0,
        0.0
      ],
      "extensions": {
        "KHR_physics_rigid_bodies": {
          "motion": {
            "mass": 1.0,
            "linearVelocity": [
              5.0,
              0.0,
              0.0
            ],
            "gravityFactor": 0.0
          },
          "collider": {
            "geometry": {
              "shape": 0
            }
          }
        }
      }
    },
    {
      "mesh": 0,
      "translation": [
        -3.0,
        0.0,
        5.0
      ],
      "extensions": {
        "KHR_physics_rigid_bodies": {
          "motion": {
            "mass": 100.0,
            "linearVelocity": [
              5.0,
              0.0,
              0.0
            ],
            "gravityFactor": 0.0
          },
          "collider": {
            "geometry": {
              "shape": 0
            }
          }
        }
      }
    },
    {
      "mesh": 0,
      "extensions": {
        "KHR_physics_rigid_bodies": {
          "motion": {
            "mass": 1.0,
            "gravityFactor": 0.0
          },
          "collider": {
            "geometry": {
              "shape": 0
            }
          }
        }
      }
    },
    {
      "mesh": 0,
      "translation": [
        0.0,
        0.0,
        5.0
      ],
      "extensions": {
        "KHR_physics_rigid_bodies": {
          "motion": {
            "mass": 1.0,
            "gravityFactor": 0.0
          },
          "collider": {
            "geometry": {
              "shape": 0
            }
          }
        }
      }
    }
  ],
  "scene": 0,
  "scenes": [
    {
      "nodes": [
        0,
        1,
        2,
        3
      ]
    }
  ],
  "extensions": {
    "KHR_implicit_shapes": {
      "shapes": [
        {
          "type": "box",
          "box": {}
        }
      ]
    }
  }
}