{
  "extensionsUsed": [
    "KHR_implicit_shapes",
    "KHR_physics_rigid_bodies"
  ],
  "extensionsRequired": [
    "KHR_implicit_shapes",
    "KHR_physics_rigid_bodies"
  ],
  "accessors": [
    {
      "bufferView": 0,
      "componentType": 5126,
      "count": 8,
      "type": "VEC3",
      "max": [
        0.5,
        0.1,
        0.5
      ],
      "min": [
        -0.5,
        -0.1,
        -0.5
      ],
      "name": "Positions Accessor"
    },
    {
      "bufferView": 1,
      "componentType": 5125,
      "count": 36,
      "type": "SCALAR",
      "name": "Indices Accessor"
    },
    {
      "bufferView": 2,
      "componentType": 5126,
      "count": 8,
      "type": "VEC3",
      "max": [
        7.5,
        0.5,
        7.5
      ],
      "min": [
        -7.5,
        -0.5,
        -7.5
      ],
      "name": "Positions Accessor"
    },
    {
      "bufferView": 3,
      "componentType": 5125,
      "count": 36,
      "type": "SCALAR",
      "name": "Indices Accessor"
    }
  ],
  "asset": {
    "generator": "glTF Asset Generator",
    "version": "2.0"
  },
  "buffers": [
    {
      "uri": "RigidBodies_Materials_02.bin",
      "byteLength": 480
    }
  ],
  "bufferViews": [
    {
      "buffer": 0,
      "byteLength": 96,
      "name": "Positions"
    },
    {
      "buffer": 0,
      "byteOffset": 96,
      "byteLength": 144,
      "name": "Indices"
    },
    {
      "buffer": 0,
      "byteOffset": 240,
      "byteLength": 96,
      "name": "Positions"
    },
    {
      "buffer": 0,
      "byteOffset": 336,
      "byteLength": 144,
      "name": "Indices"
    }
  ],
  "meshes": [
    {
      "primitives": [
        {
          "attributes": {
            "POSITION": 0
          },
          "indices": 1
        }
      ]
    },
    {
      "primitives": [
        {
          "attributes": {
            "POSITION": 2
          },
          "indices": 3
        }
      ]
    }
  ],
  "nodes": [
    {
      "mesh": 0,
      "rotation": [
        0.38268346,
        0.0,
        0.0,
        0.9238795
      ],
      "translation": [
        -5.0,
        0.070710674,
        0.07071068
      ],
      "extensions": {
        "KHR_physics_rigid_bodies": {
          "motion": {},
          "collider": {
            "geometry": {
              "shape": 0
            },
            "physicsMaterial": 0
          }
        }
      }
    },
    {
      "mesh": 0,
      "rotation": [
        0.38268346,
        0.0,
        0.0,
        0.9238795
      ],
      "translation": [
        5.0,
        0.070710674,
        0.07071068
      ],
      "extensions": {
        "KHR_physics_rigid_bodies": {
          "motion": {},
          "collider": {
            "geometry": {
              "shape": 0
            },
            "physicsMaterial": 1
          }
        }
      }
    },
    {
      "mesh": 1,
      "rotation": [
        0.38268346,
        0.0,
        0.0,
        0.9238795
      ],
      "translation": [
        -0.0,
        -0.35355335,
        -0.3535534
      ],
      "extensions": {
        "KHR_physics_rigid_bodies": {
          "collider": {
            "geometry": {
              "shape": 1
            }
          }
        }
      }
    }
  ],
  "scene": 0,
  "scenes": [
    {
      "nodes": [
        0,
        1,
        2
      ]
    }
  ],
  "extensions": {
    "KHR_implicit_shapes": {
      "shapes": [
        {
          "type": "box",
          "box": {
            "size": [
              1.0,
              0.2,
              1.0
            ]
          }
        },
        {
          "type": "box",
          "box": {
            "size": [
              15.0,
              1.0,
              15.0
            ]
          }
        }
      ]
    },
    "KHR_physics_rigid_bodies": {
      "physicsMaterials": [
        {
          "staticFriction": 0.0,
          "dynamicFriction": 0.0,
          "frictionCombine": "average"
        },
        {
          "staticFriction": 10.0,
          "dynamicFriction": 10.0,
          "frictionCombine": "average"
        }
      ]
    }
  }
}