{
	"asset":{
		"generator":"Khronos glTF Blender I/O v4.4.55",
		"version":"2.0"
	},
	"extensionsUsed":[
		"KHR_implicit_shapes",
		"KHR_physics_rigid_bodies",
		"KHR_lights_punctual"
	],
	"extensionsRequired":[
		"KHR_lights_punctual"
	],
	"extensions":{
		"KHR_implicit_shapes":{
			"shapes":[
				{
					"type":"box",
					"box":{
						"size":[
							10,
							0.20000000298023224,
							10
						]
					}
				},
				{
					"type":"capsule",
					"capsule":{
						"height":0.5497999787330627,
						"radiusBottom":0.3889999985694885,
						"radiusTop":0.25
					}
				},
				{
					"type":"cylinder",
					"cylinder":{
						"height":2.3964407444000244,
						"radiusBottom":1.1922439336776733,
						"radiusTop":0
					}
				}
			]
		},
		"KHR_physics_rigid_bodies":{
			"physicsMaterials":[
				{
					"staticFriction":0.5,
					"dynamicFriction":0.5,
					"restitution":0
				}
			],
			"collisionFilters":[
				{
					"collisionSystems":[
						"System_0"
					],
					"collideWithSystems":[
						"System_0"
					]
				}
			]
		},
		"KHR_lights_punctual":{
			"lights":[
				{
					"color":[
						1,
						1,
						1
					],
					"intensity":543.5141306588226,
					"spot":{
						"innerConeAngle":0.556323685321221,
						"outerConeAngle":0.6544984579086304
					},
					"type":"spot",
					"name":"Light.001"
				}
			]
		}
	},
	"scene":0,
	"scenes":[
		{
			"name":"Scene",
			"nodes":[
				0,
				1,
				2,
				3,
				5,
				7,
				9,
				11,
				13,
				15,
				16,
				18
			]
		}
	],
	"nodes":[
		{
			"extensions":{
				"KHR_physics_rigid_bodies":{
					"collider":{
						"geometry":{
							"shape":0
						},
						"physicsMaterial":0,
						"collisionFilter":0
					}
				}
			},
			"mesh":0,
			"name":"GroundBox"
		},
		{
			"extensions":{
				"KHR_lights_punctual":{
					"light":0
				}
			},
			"name":"Light",
			"rotation":[
				-0.9064873456954956,
				0.30373403429985046,
				-0.22516734898090363,
				0.1879522204399109
			],
			"translation":[
				10.10300350189209,
				5.322088241577148,
				-12.933935165405273
			]
		},
		{
			"camera":0,
			"name":"Camera",
			"rotation":[
				-0.0006247389828786254,
				-0.9995772242546082,
				-0.028788626194000244,
				0.004049865994602442
			],
			"translation":[
				-0.06458347290754318,
				3.0855536460876465,
				-17.244998931884766
			]
		},
		{
			"extensions":{
				"KHR_physics_rigid_bodies":{
					"motion":{
						"mass":1,
						"centerOfMass":[
							0,
							-0.3499999940395355,
							0
						]
					},
					"collider":{
						"geometry":{
							"shape":1
						},
						"physicsMaterial":0,
						"collisionFilter":0
					}
				}
			},
			"mesh":1,
			"name":"WobbyToy_ModifiedCOM",
			"rotation":[
				0.23983019590377808,
				-0.16575682163238525,
				-0.5438631772994995,
				0.7869046926498413
			],
			"translation":[
				3.0006041526794434,
				2.5743825435638428,
				0
			]
		},
		{
			"mesh":2,
			"name":"physicsMeshDataNode",
			"rotation":[
				0,
				0,
				0,
				1
			],
			"translation":[
				0,
				0,
				0
			]
		},
		{
			"extensions":{
				"KHR_physics_rigid_bodies":{
					"collider":{
						"geometry":{
							"convexHull":false,
							"node":4
						},
						"physicsMaterial":0,
						"collisionFilter":0
					}
				}
			},
			"mesh":2,
			"name":"Ceiling",
			"translation":[
				0,
				5.323432445526123,
				0
			]
		},
		{
			"mesh":3,
			"name":"physicsMeshDataNode",
			"rotation":[
				0,
				0,
				0,
				1
			],
			"translation":[
				0,
				0,
				0
			]
		},
		{
			"extensions":{
				"KHR_physics_rigid_bodies":{
					"motion":{
						"mass":1,
						"gravityFactor":-0.5
					},
					"collider":{
						"geometry":{
							"convexHull":true,
							"node":6
						},
						"physicsMaterial":0,
						"collisionFilter":0
					}
				}
			},
			"mesh":3,
			"name":"Balloon_GravityFactor.001",
			"rotation":[
				0,
				0,
				-0.7071068286895752,
				0.7071068286895752
			],
			"scale":[
				0.26224279403686523,
				0.26224279403686523,
				0.26224279403686523
			],
			"translation":[
				-3.4571709632873535,
				0.47535815834999084,
				-0.021255645900964737
			]
		},
		{
			"mesh":4,
			"name":"physicsMeshDataNode",
			"rotation":[
				0,
				0,
				0,
				1
			],
			"translation":[
				0,
				0,
				0
			]
		},
		{
			"extensions":{
				"KHR_physics_rigid_bodies":{
					"motion":{
						"mass":1,
						"gravityFactor":-0.5
					},
					"collider":{
						"geometry":{
							"convexHull":true,
							"node":8
						},
						"physicsMaterial":0,
						"collisionFilter":0
					}
				}
			},
			"mesh":4,
			"name":"Balloon_GravityFactor.002",
			"rotation":[
				-0.06917271763086319,
				-0.06917202472686768,
				-0.9887976050376892,
				0.11273732036352158
			],
			"scale":[
				0.26224279403686523,
				0.26224279403686523,
				0.26224279403686523
			],
			"translation":[
				-2.672861099243164,
				0.44633933901786804,
				0.3699027895927429
			]
		},
		{
			"mesh":5,
			"name":"physicsMeshDataNode",
			"rotation":[
				0,
				0,
				0,
				1
			],
			"translation":[
				0,
				0,
				0
			]
		},
		{
			"extensions":{
				"KHR_physics_rigid_bodies":{
					"motion":{
						"mass":1,
						"gravityFactor":-0.5
					},
					"collider":{
						"geometry":{
							"convexHull":true,
							"node":10
						},
						"physicsMaterial":0,
						"collisionFilter":0
					}
				}
			},
			"mesh":5,
			"name":"Balloon_GravityFactor.003",
			"rotation":[
				-0.8895257711410522,
				0.059206895530223846,
				-0.41523995995521545,
				0.18114697933197021
			],
			"scale":[
				0.26224279403686523,
				0.26224276423454285,
				0.26224279403686523
			],
			"translation":[
				-2.767179012298584,
				0.4837356209754944,
				-0.11874133348464966
			]
		},
		{
			"mesh":6,
			"name":"physicsMeshDataNode",
			"rotation":[
				0,
				0,
				0,
				1
			],
			"translation":[
				0,
				0,
				0
			]
		},
		{
			"extensions":{
				"KHR_physics_rigid_bodies":{
					"motion":{
						"mass":1,
						"gravityFactor":-0.5
					},
					"collider":{
						"geometry":{
							"convexHull":true,
							"node":12
						},
						"physicsMaterial":0,
						"collisionFilter":0
					}
				}
			},
			"mesh":6,
			"name":"Balloon_GravityFactor",
			"rotation":[
				-0.7051693201065063,
				-0.6073976159095764,
				0.03355078026652336,
				0.3642509877681732
			],
			"scale":[
				0.26224279403686523,
				0.26224279403686523,
				0.26224279403686523
			],
			"translation":[
				-3.0306520462036133,
				0.7735296487808228,
				0.6095728278160095
			]
		},
		{
			"mesh":7,
			"name":"physicsMeshDataNode",
			"rotation":[
				0,
				0,
				0,
				1
			],
			"translation":[
				0,
				0,
				0
			]
		},
		{
			"extensions":{
				"KHR_physics_rigid_bodies":{
					"motion":{
						"mass":0,
						"inertiaDiagonal":[
							0,
							1,
							0
						],
						"inertiaOrientation":[
							0,
							0,
							0,
							1
						],
						"gravityFactor":0
					},
					"collider":{
						"geometry":{
							"convexHull":false,
							"node":14
						},
						"physicsMaterial":0,
						"collisionFilter":0
					}
				}
			},
			"mesh":7,
			"name":"Wheel_InfiniteMassFiniteInertia",
			"rotation":[
				0.7071068286895752,
				0,
				0,
				0.7071068286895752
			],
			"scale":[
				0.3981337547302246,
				0.3981337547302246,
				0.3981337547302246
			],
			"translation":[
				-1.6372116804122925,
				2.3193838596343994,
				0
			]
		},
		{
			"extensions":{
				"KHR_physics_rigid_bodies":{
					"collider":{
						"geometry":{
							"shape":2
						},
						"physicsMaterial":0,
						"collisionFilter":0
					}
				}
			},
			"mesh":8,
			"name":"Cone",
			"scale":[
				0.3848503828048706,
				0.3848503828048706,
				0.3848503828048706
			],
			"translation":[
				1.2055795192718506,
				0.47530412673950195,
				0
			]
		},
		{
			"mesh":9,
			"name":"physicsMeshDataNode",
			"rotation":[
				0,
				0,
				0,
				1
			],
			"translation":[
				0,
				0,
				0
			]
		},
		{
			"extensions":{
				"KHR_physics_rigid_bodies":{
					"motion":{
						"mass":1,
						"inertiaDiagonal":[
							0,
							0,
							0
						],
						"inertiaOrientation":[
							0,
							0,
							0,
							1
						]
					},
					"collider":{
						"geometry":{
							"convexHull":true,
							"node":17
						},
						"physicsMaterial":0,
						"collisionFilter":0
					}
				}
			},
			"mesh":9,
			"name":"InfInertiaBox",
			"translation":[
				0.6614035367965698,
				4.5052571296691895,
				-0.07134325802326202
			]
		}
	],
	"cameras":[
		{
			"name":"Camera.001",
			"perspective":{
				"aspectRatio":1.7777777777777777,
				"yfov":0.39959652046304894,
				"zfar":1000,
				"znear":0.10000000149011612
			},
			"type":"perspective"
		}
	],
	"materials":[
		{
			"doubleSided":true,
			"name":"GridFloorBaked.002",
			"pbrMetallicRoughness":{
				"baseColorTexture":{
					"index":0
				},
				"metallicFactor":0,
				"roughnessFactor":0.5
			}
		},
		{
			"doubleSided":true,
			"name":"WobblyToyMaterialBaked",
			"pbrMetallicRoughness":{
				"baseColorTexture":{
					"index":1
				},
				"metallicFactor":0,
				"roughnessFactor":0.38100001215934753
			}
		},
		{
			"doubleSided":true,
			"name":"RedBalloon",
			"pbrMetallicRoughness":{
				"baseColorFactor":[
					0.8000000715255737,
					0.020526031032204628,
					0.006787703838199377,
					1
				],
				"metallicFactor":0,
				"roughnessFactor":0.1454545557498932
			}
		},
		{
			"doubleSided":true,
			"name":"YellowBalloon",
			"pbrMetallicRoughness":{
				"baseColorFactor":[
					0.8000000715255737,
					0.430356502532959,
					0.038135893642902374,
					1
				],
				"metallicFactor":0,
				"roughnessFactor":0.1454545557498932
			}
		},
		{
			"doubleSided":true,
			"name":"PurpleBalloon",
			"pbrMetallicRoughness":{
				"baseColorFactor":[
					0.11949184536933899,
					0.08332283049821854,
					0.8000000715255737,
					1
				],
				"metallicFactor":0,
				"roughnessFactor":0.1454545557498932
			}
		},
		{
			"doubleSided":true,
			"name":"GreenBalloon",
			"pbrMetallicRoughness":{
				"baseColorFactor":[
					0.17685817182064056,
					0.8000000715255737,
					0,
					1
				],
				"metallicFactor":0,
				"roughnessFactor":0.1454545557498932
			}
		},
		{
			"doubleSided":true,
			"name":"InffMasswheel",
			"pbrMetallicRoughness":{
				"baseColorFactor":[
					0.12443127483129501,
					0.30948176980018616,
					0.8000000715255737,
					1
				],
				"metallicFactor":0.4603174328804016,
				"roughnessFactor":0.380952388048172
			}
		},
		{
			"doubleSided":true,
			"name":"InfInertiaBoxBaked",
			"pbrMetallicRoughness":{
				"baseColorTexture":{
					"index":2
				},
				"metallicFactor":0.4603174328804016,
				"roughnessFactor":0.38100001215934753
			}
		}
	],
	"meshes":[
		{
			"name":"Cube.004",
			"primitives":[
				{
					"attributes":{
						"POSITION":0,
						"NORMAL":1,
						"TEXCOORD_0":2
					},
					"indices":3,
					"material":0
				}
			]
		},
		{
			"name":"BezierCurve",
			"primitives":[
				{
					"attributes":{
						"POSITION":4,
						"NORMAL":5,
						"TEXCOORD_0":6
					},
					"indices":7,
					"material":1
				}
			]
		},
		{
			"name":"Cube.005",
			"primitives":[
				{
					"attributes":{
						"POSITION":8,
						"NORMAL":9,
						"TEXCOORD_0":10
					},
					"indices":11,
					"material":0
				}
			]
		},
		{
			"name":"BezierCurve.001",
			"primitives":[
				{
					"attributes":{
						"POSITION":12,
						"NORMAL":13,
						"TEXCOORD_0":14
					},
					"indices":15,
					"material":2
				}
			]
		},
		{
			"name":"BezierCurve.002",
			"primitives":[
				{
					"attributes":{
						"POSITION":16,
						"NORMAL":17,
						"TEXCOORD_0":18
					},
					"indices":15,
					"material":3
				}
			]
		},
		{
			"name":"BezierCurve.003",
			"primitives":[
				{
					"attributes":{
						"POSITION":19,
						"NORMAL":20,
						"TEXCOORD_0":21
					},
					"indices":15,
					"material":4
				}
			]
		},
		{
			"name":"BezierCurve.004",
			"primitives":[
				{
					"attributes":{
						"POSITION":22,
						"NORMAL":23,
						"TEXCOORD_0":24
					},
					"indices":15,
					"material":5
				}
			]
		},
		{
			"name":"Torus",
			"primitives":[
				{
					"attributes":{
						"POSITION":25,
						"NORMAL":26,
						"TEXCOORD_0":27
					},
					"indices":28,
					"material":6
				}
			]
		},
		{
			"name":"Cone",
			"primitives":[
				{
					"attributes":{
						"POSITION":29,
						"NORMAL":30,
						"TEXCOORD_0":31
					},
					"indices":32,
					"material":0
				}
			]
		},
		{
			"name":"Cube.001",
			"primitives":[
				{
					"attributes":{
						"POSITION":33,
						"NORMAL":34,
						"TEXCOORD_0":35
					},
					"indices":36,
					"material":7
				}
			]
		}
	],
	"textures":[
		{
			"sampler":0,
			"source":0
		},
		{
			"sampler":0,
			"source":1
		},
		{
			"sampler":0,
			"source":2
		}
	],
	"images":[
		{
			"mimeType":"image/png",
			"name":"Plane_color",
			"uri":"Plane_color.png"
		},
		{
			"mimeType":"image/png",
			"name":"WobblyToy_color",
			"uri":"WobblyToy_color.png"
		},
		{
			"mimeType":"image/png",
			"name":"InfInertiaBox_color",
			"uri":"InfInertiaBox_color.png"
		}
	],
	"accessors":[
		{
			"bufferView":0,
			"componentType":5126,
			"count":24,
			"max":[
				5,
				0.10000000149011612,
				5
			],
			"min":[
				-5,
				-0.10000000149011612,
				-5
			],
			"type":"VEC3"
		},
		{
			"bufferView":1,
			"componentType":5126,
			"count":24,
			"type":"VEC3"
		},
		{
			"bufferView":2,
			"componentType":5126,
			"count":24,
			"type":"VEC2"
		},
		{
			"bufferView":3,
			"componentType":5123,
			"count":36,
			"type":"SCALAR"
		},
		{
			"bufferView":4,
			"componentType":5126,
			"count":744,
			"max":[
				0.3894026279449463,
				0.5277507901191711,
				0.3892013132572174
			],
			"min":[
				-0.3889999985694885,
				-0.664309561252594,
				-0.3892013132572174
			],
			"type":"VEC3"
		},
		{
			"bufferView":5,
			"componentType":5126,
			"count":744,
			"type":"VEC3"
		},
		{
			"bufferView":6,
			"componentType":5126,
			"count":744,
			"type":"VEC2"
		},
		{
			"bufferView":7,
			"componentType":5123,
			"count":3456,
			"type":"SCALAR"
		},
		{
			"bufferView":8,
			"componentType":5126,
			"count":40,
			"max":[
				5,
				0.10000000149011612,
				5
			],
			"min":[
				-5,
				-0.4376579821109772,
				-5
			],
			"type":"VEC3"
		},
		{
			"bufferView":9,
			"componentType":5126,
			"count":40,
			"type":"VEC3"
		},
		{
			"bufferView":10,
			"componentType":5126,
			"count":40,
			"type":"VEC2"
		},
		{
			"bufferView":11,
			"componentType":5123,
			"count":60,
			"type":"SCALAR"
		},
		{
			"bufferView":12,
			"componentType":5126,
			"count":629,
			"max":[
				0.9984763264656067,
				1.2754491567611694,
				1.2754491567611694
			],
			"min":[
				-2.2361791133880615,
				-1.2754491567611694,
				-1.2754491567611694
			],
			"type":"VEC3"
		},
		{
			"bufferView":13,
			"componentType":5126,
			"count":629,
			"type":"VEC3"
		},
		{
			"bufferView":14,
			"componentType":5126,
			"count":629,
			"type":"VEC2"
		},
		{
			"bufferView":15,
			"componentType":5123,
			"count":3456,
			"type":"SCALAR"
		},
		{
			"bufferView":16,
			"componentType":5126,
			"count":629,
			"max":[
				0.9984763264656067,
				1.2754491567611694,
				1.2754491567611694
			],
			"min":[
				-2.2361791133880615,
				-1.2754491567611694,
				-1.2754491567611694
			],
			"type":"VEC3"
		},
		{
			"bufferView":17,
			"componentType":5126,
			"count":629,
			"type":"VEC3"
		},
		{
			"bufferView":18,
			"componentType":5126,
			"count":629,
			"type":"VEC2"
		},
		{
			"bufferView":19,
			"componentType":5126,
			"count":629,
			"max":[
				0.9984763264656067,
				1.2754491567611694,
				1.2754491567611694
			],
			"min":[
				-2.2361791133880615,
				-1.2754491567611694,
				-1.2754491567611694
			],
			"type":"VEC3"
		},
		{
			"bufferView":20,
			"componentType":5126,
			"count":629,
			"type":"VEC3"
		},
		{
			"bufferView":21,
			"componentType":5126,
			"count":629,
			"type":"VEC2"
		},
		{
			"bufferView":22,
			"componentType":5126,
			"count":629,
			"max":[
				0.9984763264656067,
				1.2754491567611694,
				1.2754491567611694
			],
			"min":[
				-2.2361791133880615,
				-1.2754491567611694,
				-1.2754491567611694
			],
			"type":"VEC3"
		},
		{
			"bufferView":23,
			"componentType":5126,
			"count":629,
			"type":"VEC3"
		},
		{
			"bufferView":24,
			"componentType":5126,
			"count":629,
			"type":"VEC2"
		},
		{
			"bufferView":25,
			"componentType":5126,
			"count":12288,
			"max":[
				2.3690333366394043,
				1.1102851629257202,
				2.3690333366394043
			],
			"min":[
				-2.3690333366394043,
				-1.1102851629257202,
				-2.3690333366394043
			],
			"type":"VEC3"
		},
		{
			"bufferView":26,
			"componentType":5126,
			"count":12288,
			"type":"VEC3"
		},
		{
			"bufferView":27,
			"componentType":5126,
			"count":12288,
			"type":"VEC2"
		},
		{
			"bufferView":28,
			"componentType":5123,
			"count":73728,
			"type":"SCALAR"
		},
		{
			"bufferView":29,
			"componentType":5126,
			"count":66,
			"max":[
				1.1922439336776733,
				1.1862674951553345,
				1.1922439336776733
			],
			"min":[
				-1.1922439336776733,
				-1.1982203722000122,
				-1.1922439336776733
			],
			"type":"VEC3"
		},
		{
			"bufferView":30,
			"componentType":5126,
			"count":66,
			"type":"VEC3"
		},
		{
			"bufferView":31,
			"componentType":5126,
			"count":66,
			"type":"VEC2"
		},
		{
			"bufferView":32,
			"componentType":5123,
			"count":186,
			"type":"SCALAR"
		},
		{
			"bufferView":33,
			"componentType":5126,
			"count":14760,
			"max":[
				0.6667054891586304,
				0.33451980352401733,
				0.3599701225757599
			],
			"min":[
				-0.6667054891586304,
				-0.33451980352401733,
				-0.3599701225757599
			],
			"type":"VEC3"
		},
		{
			"bufferView":34,
			"componentType":5126,
			"count":14760,
			"type":"VEC3"
		},
		{
			"bufferView":35,
			"componentType":5126,
			"count":14760,
			"type":"VEC2"
		},
		{
			"bufferView":36,
			"componentType":5123,
			"count":36864,
			"type":"SCALAR"
		}
	],
	"bufferViews":[
		{
			"buffer":0,
			"byteLength":288,
			"byteOffset":0,
			"target":34962
		},
		{
			"buffer":0,
			"byteLength":288,
			"byteOffset":288,
			"target":34962
		},
		{
			"buffer":0,
			"byteLength":192,
			"byteOffset":576,
			"target":34962
		},
		{
			"buffer":0,
			"byteLength":72,
			"byteOffset":768,
			"target":34963
		},
		{
			"buffer":0,
			"byteLength":8928,
			"byteOffset":840,
			"target":34962
		},
		{
			"buffer":0,
			"byteLength":8928,
			"byteOffset":9768,
			"target":34962
		},
		{
			"buffer":0,
			"byteLength":5952,
			"byteOffset":18696,
			"target":34962
		},
		{
			"buffer":0,
			"byteLength":6912,
			"byteOffset":24648,
			"target":34963
		},
		{
			"buffer":0,
			"byteLength":480,
			"byteOffset":31560,
			"target":34962
		},
		{
			"buffer":0,
			"byteLength":480,
			"byteOffset":32040,
			"target":34962
		},
		{
			"buffer":0,
			"byteLength":320,
			"byteOffset":32520,
			"target":34962
		},
		{
			"buffer":0,
			"byteLength":120,
			"byteOffset":32840,
			"target":34963
		},
		{
			"buffer":0,
			"byteLength":7548,
			"byteOffset":32960,
			"target":34962
		},
		{
			"buffer":0,
			"byteLength":7548,
			"byteOffset":40508,
			"target":34962
		},
		{
			"buffer":0,
			"byteLength":5032,
			"byteOffset":48056,
			"target":34962
		},
		{
			"buffer":0,
			"byteLength":6912,
			"byteOffset":53088,
			"target":34963
		},
		{
			"buffer":0,
			"byteLength":7548,
			"byteOffset":60000,
			"target":34962
		},
		{
			"buffer":0,
			"byteLength":7548,
			"byteOffset":67548,
			"target":34962
		},
		{
			"buffer":0,
			"byteLength":5032,
			"byteOffset":75096,
			"target":34962
		},
		{
			"buffer":0,
			"byteLength":7548,
			"byteOffset":80128,
			"target":34962
		},
		{
			"buffer":0,
			"byteLength":7548,
			"byteOffset":87676,
			"target":34962
		},
		{
			"buffer":0,
			"byteLength":5032,
			"byteOffset":95224,
			"target":34962
		},
		{
			"buffer":0,
			"byteLength":7548,
			"byteOffset":100256,
			"target":34962
		},
		{
			"buffer":0,
			"byteLength":7548,
			"byteOffset":107804,
			"target":34962
		},
		{
			"buffer":0,
			"byteLength":5032,
			"byteOffset":115352,
			"target":34962
		},
		{
			"buffer":0,
			"byteLength":147456,
			"byteOffset":120384,
			"target":34962
		},
		{
			"buffer":0,
			"byteLength":147456,
			"byteOffset":267840,
			"target":34962
		},
		{
			"buffer":0,
			"byteLength":98304,
			"byteOffset":415296,
			"target":34962
		},
		{
			"buffer":0,
			"byteLength":147456,
			"byteOffset":513600,
			"target":34963
		},
		{
			"buffer":0,
			"byteLength":792,
			"byteOffset":661056,
			"target":34962
		},
		{
			"buffer":0,
			"byteLength":792,
			"byteOffset":661848,
			"target":34962
		},
		{
			"buffer":0,
			"byteLength":528,
			"byteOffset":662640,
			"target":34962
		},
		{
			"buffer":0,
			"byteLength":372,
			"byteOffset":663168,
			"target":34963
		},
		{
			"buffer":0,
			"byteLength":177120,
			"byteOffset":663540,
			"target":34962
		},
		{
			"buffer":0,
			"byteLength":177120,
			"byteOffset":840660,
			"target":34962
		},
		{
			"buffer":0,
			"byteLength":118080,
			"byteOffset":1017780,
			"target":34962
		},
		{
			"buffer":0,
			"byteLength":73728,
			"byteOffset":1135860,
			"target":34963
		}
	],
	"samplers":[
		{
			"magFilter":9729,
			"minFilter":9987
		}
	],
	"buffers":[
		{
			"byteLength":1209588,
			"uri":"MotionProperties.bin"
		}
	]
}
