{
	"asset":{
		"generator":"Khronos glTF Blender I/O v3.6.27",
		"version":"2.0"
	},
	"extensionsUsed":[
		"MSFT_collision_primitives",
		"MSFT_rigid_bodies",
		"KHR_lights_punctual"
	],
	"extensionsRequired":[
		"KHR_lights_punctual"
	],
	"extensions":{
		"MSFT_collision_primitives":{
			"colliders":[
				{
					"type":"box",
					"box":{
						"size":[
							10,
							0.20000000298023224,
							10
						]
					}
				},
				{
					"type":"capsule",
					"capsule":{
						"height":0.5700000524520874,
						"radiusBottom":0.38999998569488525,
						"radiusTop":0.25
					}
				},
				{
					"type":"trimesh",
					"trimesh":{
						"mesh":2
					}
				},
				{
					"type":"convex",
					"convex":{
						"mesh":3
					}
				},
				{
					"type":"convex",
					"convex":{
						"mesh":4
					}
				},
				{
					"type":"convex",
					"convex":{
						"mesh":5
					}
				},
				{
					"type":"convex",
					"convex":{
						"mesh":6
					}
				},
				{
					"type":"trimesh",
					"trimesh":{
						"mesh":7
					}
				},
				{
					"type":"cylinder",
					"cylinder":{
						"height":2,
						"radiusBottom":1,
						"radiusTop":0
					}
				},
				{
					"type":"convex",
					"convex":{
						"mesh":9
					}
				}
			]
		},
		"MSFT_rigid_bodies":{
			"physicsMaterials":[
				{
					"staticFriction":0.5,
					"dynamicFriction":0.5,
					"restitution":0
				}
			],
			"collisionFilters":[
				{
					"collisionSystems":[
						"System_0"
					],
					"collideWithSystems":[
						"System_0"
					]
				}
			]
		},
		"KHR_lights_punctual":{
			"lights":[
				{
					"color":[
						1,
						1,
						1
					],
					"intensity":820.7062543611474,
					"spot":{
						"innerConeAngle":0.556323685321221,
						"outerConeAngle":0.6544984579086304
					},
					"type":"spot",
					"name":"Light.001"
				}
			]
		}
	},
	"scene":0,
	"scenes":[
		{
			"name":"Scene",
			"nodes":[
				0,
				1,
				2,
				3,
				4,
				5,
				6,
				7,
				8,
				9,
				10,
				11
			]
		}
	],
	"nodes":[
		{
			"extensions":{
				"MSFT_rigid_bodies":{
					"collider":{
						"collider":0,
						"physicsMaterial":0,
						"collisionFilter":0
					}
				}
			},
			"mesh":0,
			"name":"GroundBox"
		},
		{
			"extensions":{
				"KHR_lights_punctual":{
					"light":0
				}
			},
			"name":"Light",
			"rotation":[
				-0.9234616756439209,
				0.23743925988674164,
				-0.23016062378883362,
				0.19459517300128937
			],
			"translation":[
				13.453001022338867,
				3.8987436294555664,
				-19.632970809936523
			]
		},
		{
			"camera":0,
			"name":"Camera",
			"rotation":[
				-0.0006247389828786254,
				-0.9995772242546082,
				-0.028788626194000244,
				0.004049865994602442
			],
			"translation":[
				-0.06458347290754318,
				3.0855536460876465,
				-17.244998931884766
			]
		},
		{
			"extensions":{
				"MSFT_rigid_bodies":{
					"motion":{
						"mass":1,
						"centerOfMass":[
							0,
							-0.3499999940395355,
							0
						]
					},
					"collider":{
						"collider":1,
						"physicsMaterial":0,
						"collisionFilter":0
					}
				}
			},
			"mesh":1,
			"name":"WobbyToy_ModifiedCOM",
			"rotation":[
				0.23983019590377808,
				-0.16575682163238525,
				-0.5438631772994995,
				0.7869046926498413
			],
			"translation":[
				3.0006041526794434,
				2.5743825435638428,
				0
			]
		},
		{
			"extensions":{
				"MSFT_rigid_bodies":{
					"collider":{
						"collider":2,
						"physicsMaterial":0,
						"collisionFilter":0
					}
				}
			},
			"mesh":2,
			"name":"Ceiling",
			"translation":[
				0,
				5.323432445526123,
				0
			]
		},
		{
			"extensions":{
				"MSFT_rigid_bodies":{
					"motion":{
						"mass":1,
						"gravityFactor":-0.5
					},
					"collider":{
						"collider":3,
						"physicsMaterial":0,
						"collisionFilter":0
					}
				}
			},
			"mesh":3,
			"name":"Balloon_GravityFactor.001",
			"rotation":[
				0,
				0,
				-0.7071068286895752,
				0.7071068286895752
			],
			"scale":[
				0.26224279403686523,
				0.26224279403686523,
				0.26224279403686523
			],
			"translation":[
				-3.4571709632873535,
				0.47535815834999084,
				-0.021255645900964737
			]
		},
		{
			"extensions":{
				"MSFT_rigid_bodies":{
					"motion":{
						"mass":1,
						"gravityFactor":-0.5
					},
					"collider":{
						"collider":4,
						"physicsMaterial":0,
						"collisionFilter":0
					}
				}
			},
			"mesh":4,
			"name":"Balloon_GravityFactor.002",
			"rotation":[
				-0.06917271763086319,
				-0.06917202472686768,
				-0.9887976050376892,
				0.11273732036352158
			],
			"scale":[
				0.26224279403686523,
				0.26224279403686523,
				0.26224279403686523
			],
			"translation":[
				-2.672861099243164,
				0.44633933901786804,
				0.3699027895927429
			]
		},
		{
			"extensions":{
				"MSFT_rigid_bodies":{
					"motion":{
						"mass":1,
						"gravityFactor":-0.5
					},
					"collider":{
						"collider":5,
						"physicsMaterial":0,
						"collisionFilter":0
					}
				}
			},
			"mesh":5,
			"name":"Balloon_GravityFactor.003",
			"rotation":[
				-0.8895257711410522,
				0.059206895530223846,
				-0.41523995995521545,
				0.18114697933197021
			],
			"scale":[
				0.26224279403686523,
				0.26224276423454285,
				0.26224279403686523
			],
			"translation":[
				-2.767179012298584,
				0.4837356209754944,
				-0.11874133348464966
			]
		},
		{
			"extensions":{
				"MSFT_rigid_bodies":{
					"motion":{
						"mass":1,
						"gravityFactor":-0.5
					},
					"collider":{
						"collider":6,
						"physicsMaterial":0,
						"collisionFilter":0
					}
				}
			},
			"mesh":6,
			"name":"Balloon_GravityFactor",
			"rotation":[
				-0.7051693201065063,
				-0.6073976159095764,
				0.03355078026652336,
				0.3642509877681732
			],
			"scale":[
				0.26224279403686523,
				0.26224279403686523,
				0.26224279403686523
			],
			"translation":[
				-3.0306520462036133,
				0.7735296487808228,
				0.6095728278160095
			]
		},
		{
			"extensions":{
				"MSFT_rigid_bodies":{
					"motion":{
						"mass":0,
						"inertiaDiagonal":[
							0,
							3,
							0
						],
						"inertiaOrientation":[
							1,
							0,
							0,
							0
						],
						"gravityFactor":0
					},
					"collider":{
						"collider":7,
						"physicsMaterial":0,
						"collisionFilter":0
					}
				}
			},
			"mesh":7,
			"name":"Wheel_InfiniteMassFiniteInertia",
			"rotation":[
				0.7071068286895752,
				0,
				0,
				0.7071068286895752
			],
			"scale":[
				0.3981337547302246,
				0.3981337547302246,
				0.3981337547302246
			],
			"translation":[
				-1.6372116804122925,
				2.3193838596343994,
				0
			]
		},
		{
			"extensions":{
				"MSFT_rigid_bodies":{
					"collider":{
						"collider":8,
						"physicsMaterial":0,
						"collisionFilter":0
					}
				}
			},
			"mesh":8,
			"name":"Cone",
			"scale":[
				0.3848503828048706,
				0.3848503828048706,
				0.3848503828048706
			],
			"translation":[
				1.2055795192718506,
				0.41536790132522583,
				0
			]
		},
		{
			"extensions":{
				"MSFT_rigid_bodies":{
					"motion":{
						"mass":1,
						"inertiaDiagonal":[
							0,
							0,
							0
						],
						"inertiaOrientation":[
							1,
							0,
							0,
							0
						]
					},
					"collider":{
						"collider":9,
						"physicsMaterial":0,
						"collisionFilter":0
					}
				}
			},
			"mesh":9,
			"name":"InfInertiaBox",
			"translation":[
				0.6614035367965698,
				4.5052571296691895,
				-0.07134325802326202
			]
		}
	],
	"cameras":[
		{
			"name":"Camera.001",
			"perspective":{
				"aspectRatio":1.7777777777777777,
				"yfov":0.39959652046304894,
				"zfar":1000,
				"znear":0.10000000149011612
			},
			"type":"perspective"
		}
	],
	"materials":[
		{
			"doubleSided":true,
			"name":"BoringGrey",
			"pbrMetallicRoughness":{
				"baseColorFactor":[
					0.36343222856521606,
					0.36343222856521606,
					0.36343222856521606,
					1
				],
				"metallicFactor":0,
				"roughnessFactor":0.6124030947685242
			}
		},
		{
			"doubleSided":true,
			"name":"WobblyToyMaterialBaked",
			"pbrMetallicRoughness":{
				"baseColorTexture":{
					"index":0
				},
				"metallicFactor":0,
				"roughnessFactor":0.38100001215934753
			}
		},
		{
			"doubleSided":true,
			"name":"RedBalloon",
			"pbrMetallicRoughness":{
				"baseColorFactor":[
					0.8000000715255737,
					0.020526031032204628,
					0.006787703838199377,
					1
				],
				"metallicFactor":0,
				"roughnessFactor":0.1454545557498932
			}
		},
		{
			"doubleSided":true,
			"name":"YellowBalloon",
			"pbrMetallicRoughness":{
				"baseColorFactor":[
					0.8000000715255737,
					0.430356502532959,
					0.038135893642902374,
					1
				],
				"metallicFactor":0,
				"roughnessFactor":0.1454545557498932
			}
		},
		{
			"doubleSided":true,
			"name":"PurpleBalloon",
			"pbrMetallicRoughness":{
				"baseColorFactor":[
					0.11949184536933899,
					0.08332283049821854,
					0.8000000715255737,
					1
				],
				"metallicFactor":0,
				"roughnessFactor":0.1454545557498932
			}
		},
		{
			"doubleSided":true,
			"name":"GreenBalloon",
			"pbrMetallicRoughness":{
				"baseColorFactor":[
					0.17685817182064056,
					0.8000000715255737,
					0,
					1
				],
				"metallicFactor":0,
				"roughnessFactor":0.1454545557498932
			}
		},
		{
			"doubleSided":true,
			"name":"InffMasswheel",
			"pbrMetallicRoughness":{
				"baseColorFactor":[
					0.12443127483129501,
					0.30948176980018616,
					0.8000000715255737,
					1
				],
				"metallicFactor":0.4603174328804016,
				"roughnessFactor":0.380952388048172
			}
		},
		{
			"doubleSided":true,
			"name":"InfInertiaBoxBaked",
			"pbrMetallicRoughness":{
				"baseColorTexture":{
					"index":1
				},
				"metallicFactor":0.4603174328804016,
				"roughnessFactor":0.38100001215934753
			}
		}
	],
	"meshes":[
		{
			"name":"Cube.004",
			"primitives":[
				{
					"attributes":{
						"POSITION":0,
						"NORMAL":1,
						"TEXCOORD_0":2,
						"TANGENT":3
					},
					"indices":4,
					"material":0
				}
			]
		},
		{
			"name":"BezierCurve",
			"primitives":[
				{
					"attributes":{
						"POSITION":5,
						"NORMAL":6,
						"TEXCOORD_0":7,
						"TANGENT":8
					},
					"indices":9,
					"material":1
				}
			]
		},
		{
			"name":"Cube.005",
			"primitives":[
				{
					"attributes":{
						"POSITION":10,
						"NORMAL":11,
						"TEXCOORD_0":12,
						"TANGENT":13
					},
					"indices":14,
					"material":0
				}
			]
		},
		{
			"name":"BezierCurve.001",
			"primitives":[
				{
					"attributes":{
						"POSITION":15,
						"NORMAL":16,
						"TEXCOORD_0":17,
						"TANGENT":18
					},
					"indices":19,
					"material":2
				}
			]
		},
		{
			"name":"BezierCurve.002",
			"primitives":[
				{
					"attributes":{
						"POSITION":20,
						"NORMAL":21,
						"TEXCOORD_0":22,
						"TANGENT":23
					},
					"indices":19,
					"material":3
				}
			]
		},
		{
			"name":"BezierCurve.003",
			"primitives":[
				{
					"attributes":{
						"POSITION":24,
						"NORMAL":25,
						"TEXCOORD_0":26,
						"TANGENT":27
					},
					"indices":19,
					"material":4
				}
			]
		},
		{
			"name":"BezierCurve.004",
			"primitives":[
				{
					"attributes":{
						"POSITION":28,
						"NORMAL":29,
						"TEXCOORD_0":30,
						"TANGENT":31
					},
					"indices":19,
					"material":5
				}
			]
		},
		{
			"name":"Torus",
			"primitives":[
				{
					"attributes":{
						"POSITION":32,
						"NORMAL":33,
						"TEXCOORD_0":34,
						"TANGENT":35
					},
					"indices":36,
					"material":6
				}
			]
		},
		{
			"name":"Cone",
			"primitives":[
				{
					"attributes":{
						"POSITION":37,
						"NORMAL":38,
						"TEXCOORD_0":39
					},
					"indices":40,
					"material":0
				}
			]
		},
		{
			"name":"Cube.001",
			"primitives":[
				{
					"attributes":{
						"POSITION":41,
						"NORMAL":42,
						"TEXCOORD_0":43,
						"TANGENT":44
					},
					"indices":45,
					"material":7
				}
			]
		}
	],
	"textures":[
		{
			"sampler":0,
			"source":0
		},
		{
			"sampler":0,
			"source":1
		}
	],
	"images":[
		{
			"mimeType":"image/png",
			"name":"WobblyToy_color",
			"uri":"WobblyToy_color.png"
		},
		{
			"mimeType":"image/png",
			"name":"InfInertiaBox_color",
			"uri":"InfInertiaBox_color.png"
		}
	],
	"accessors":[
		{
			"bufferView":0,
			"componentType":5126,
			"count":24,
			"max":[
				5,
				0.10000000149011612,
				5
			],
			"min":[
				-5,
				-0.10000000149011612,
				-5
			],
			"type":"VEC3"
		},
		{
			"bufferView":1,
			"componentType":5126,
			"count":24,
			"type":"VEC3"
		},
		{
			"bufferView":2,
			"componentType":5126,
			"count":24,
			"type":"VEC2"
		},
		{
			"bufferView":3,
			"componentType":5126,
			"count":24,
			"type":"VEC4"
		},
		{
			"bufferView":4,
			"componentType":5123,
			"count":36,
			"type":"SCALAR"
		},
		{
			"bufferView":5,
			"componentType":5126,
			"count":744,
			"max":[
				0.3894026279449463,
				0.5277507901191711,
				0.3892013132572174
			],
			"min":[
				-0.3889999985694885,
				-0.664309561252594,
				-0.3892013132572174
			],
			"type":"VEC3"
		},
		{
			"bufferView":6,
			"componentType":5126,
			"count":744,
			"type":"VEC3"
		},
		{
			"bufferView":7,
			"componentType":5126,
			"count":744,
			"type":"VEC2"
		},
		{
			"bufferView":8,
			"componentType":5126,
			"count":744,
			"type":"VEC4"
		},
		{
			"bufferView":9,
			"componentType":5123,
			"count":3456,
			"type":"SCALAR"
		},
		{
			"bufferView":10,
			"componentType":5126,
			"count":40,
			"max":[
				5,
				0.10000000149011612,
				5
			],
			"min":[
				-5,
				-0.4376579821109772,
				-5
			],
			"type":"VEC3"
		},
		{
			"bufferView":11,
			"componentType":5126,
			"count":40,
			"type":"VEC3"
		},
		{
			"bufferView":12,
			"componentType":5126,
			"count":40,
			"type":"VEC2"
		},
		{
			"bufferView":13,
			"componentType":5126,
			"count":40,
			"type":"VEC4"
		},
		{
			"bufferView":14,
			"componentType":5123,
			"count":60,
			"type":"SCALAR"
		},
		{
			"bufferView":15,
			"componentType":5126,
			"count":629,
			"max":[
				0.9984763264656067,
				1.2754491567611694,
				1.2754491567611694
			],
			"min":[
				-2.2361791133880615,
				-1.2754491567611694,
				-1.2754491567611694
			],
			"type":"VEC3"
		},
		{
			"bufferView":16,
			"componentType":5126,
			"count":629,
			"type":"VEC3"
		},
		{
			"bufferView":17,
			"componentType":5126,
			"count":629,
			"type":"VEC2"
		},
		{
			"bufferView":18,
			"componentType":5126,
			"count":629,
			"type":"VEC4"
		},
		{
			"bufferView":19,
			"componentType":5123,
			"count":3456,
			"type":"SCALAR"
		},
		{
			"bufferView":20,
			"componentType":5126,
			"count":629,
			"max":[
				0.9984763264656067,
				1.2754491567611694,
				1.2754491567611694
			],
			"min":[
				-2.2361791133880615,
				-1.2754491567611694,
				-1.2754491567611694
			],
			"type":"VEC3"
		},
		{
			"bufferView":21,
			"componentType":5126,
			"count":629,
			"type":"VEC3"
		},
		{
			"bufferView":22,
			"componentType":5126,
			"count":629,
			"type":"VEC2"
		},
		{
			"bufferView":23,
			"componentType":5126,
			"count":629,
			"type":"VEC4"
		},
		{
			"bufferView":24,
			"componentType":5126,
			"count":629,
			"max":[
				0.9984763264656067,
				1.2754491567611694,
				1.2754491567611694
			],
			"min":[
				-2.2361791133880615,
				-1.2754491567611694,
				-1.2754491567611694
			],
			"type":"VEC3"
		},
		{
			"bufferView":25,
			"componentType":5126,
			"count":629,
			"type":"VEC3"
		},
		{
			"bufferView":26,
			"componentType":5126,
			"count":629,
			"type":"VEC2"
		},
		{
			"bufferView":27,
			"componentType":5126,
			"count":629,
			"type":"VEC4"
		},
		{
			"bufferView":28,
			"componentType":5126,
			"count":629,
			"max":[
				0.9984763264656067,
				1.2754491567611694,
				1.2754491567611694
			],
			"min":[
				-2.2361791133880615,
				-1.2754491567611694,
				-1.2754491567611694
			],
			"type":"VEC3"
		},
		{
			"bufferView":29,
			"componentType":5126,
			"count":629,
			"type":"VEC3"
		},
		{
			"bufferView":30,
			"componentType":5126,
			"count":629,
			"type":"VEC2"
		},
		{
			"bufferView":31,
			"componentType":5126,
			"count":629,
			"type":"VEC4"
		},
		{
			"bufferView":32,
			"componentType":5126,
			"count":13582,
			"max":[
				2.3690333366394043,
				1.1102851629257202,
				2.3690333366394043
			],
			"min":[
				-2.3690333366394043,
				-1.1102851629257202,
				-2.3690333366394043
			],
			"type":"VEC3"
		},
		{
			"bufferView":33,
			"componentType":5126,
			"count":13582,
			"type":"VEC3"
		},
		{
			"bufferView":34,
			"componentType":5126,
			"count":13582,
			"type":"VEC2"
		},
		{
			"bufferView":35,
			"componentType":5126,
			"count":13582,
			"type":"VEC4"
		},
		{
			"bufferView":36,
			"componentType":5123,
			"count":73728,
			"type":"SCALAR"
		},
		{
			"bufferView":37,
			"componentType":5126,
			"count":65,
			"max":[
				1,
				1,
				1
			],
			"min":[
				-1,
				-1,
				-1
			],
			"type":"VEC3"
		},
		{
			"bufferView":38,
			"componentType":5126,
			"count":65,
			"type":"VEC3"
		},
		{
			"bufferView":39,
			"componentType":5126,
			"count":65,
			"type":"VEC2"
		},
		{
			"bufferView":40,
			"componentType":5123,
			"count":186,
			"type":"SCALAR"
		},
		{
			"bufferView":41,
			"componentType":5126,
			"count":24536,
			"max":[
				0.6667054891586304,
				0.33451980352401733,
				0.3599701225757599
			],
			"min":[
				-0.6667054891586304,
				-0.33451980352401733,
				-0.3599701225757599
			],
			"type":"VEC3"
		},
		{
			"bufferView":42,
			"componentType":5126,
			"count":24536,
			"type":"VEC3"
		},
		{
			"bufferView":43,
			"componentType":5126,
			"count":24536,
			"type":"VEC2"
		},
		{
			"bufferView":44,
			"componentType":5126,
			"count":24536,
			"type":"VEC4"
		},
		{
			"bufferView":45,
			"componentType":5123,
			"count":36864,
			"type":"SCALAR"
		}
	],
	"bufferViews":[
		{
			"buffer":0,
			"byteLength":288,
			"byteOffset":0,
			"target":34962
		},
		{
			"buffer":0,
			"byteLength":288,
			"byteOffset":288,
			"target":34962
		},
		{
			"buffer":0,
			"byteLength":192,
			"byteOffset":576,
			"target":34962
		},
		{
			"buffer":0,
			"byteLength":384,
			"byteOffset":768,
			"target":34962
		},
		{
			"buffer":0,
			"byteLength":72,
			"byteOffset":1152,
			"target":34963
		},
		{
			"buffer":0,
			"byteLength":8928,
			"byteOffset":1224,
			"target":34962
		},
		{
			"buffer":0,
			"byteLength":8928,
			"byteOffset":10152,
			"target":34962
		},
		{
			"buffer":0,
			"byteLength":5952,
			"byteOffset":19080,
			"target":34962
		},
		{
			"buffer":0,
			"byteLength":11904,
			"byteOffset":25032,
			"target":34962
		},
		{
			"buffer":0,
			"byteLength":6912,
			"byteOffset":36936,
			"target":34963
		},
		{
			"buffer":0,
			"byteLength":480,
			"byteOffset":43848,
			"target":34962
		},
		{
			"buffer":0,
			"byteLength":480,
			"byteOffset":44328,
			"target":34962
		},
		{
			"buffer":0,
			"byteLength":320,
			"byteOffset":44808,
			"target":34962
		},
		{
			"buffer":0,
			"byteLength":640,
			"byteOffset":45128,
			"target":34962
		},
		{
			"buffer":0,
			"byteLength":120,
			"byteOffset":45768,
			"target":34963
		},
		{
			"buffer":0,
			"byteLength":7548,
			"byteOffset":45888,
			"target":34962
		},
		{
			"buffer":0,
			"byteLength":7548,
			"byteOffset":53436,
			"target":34962
		},
		{
			"buffer":0,
			"byteLength":5032,
			"byteOffset":60984,
			"target":34962
		},
		{
			"buffer":0,
			"byteLength":10064,
			"byteOffset":66016,
			"target":34962
		},
		{
			"buffer":0,
			"byteLength":6912,
			"byteOffset":76080,
			"target":34963
		},
		{
			"buffer":0,
			"byteLength":7548,
			"byteOffset":82992,
			"target":34962
		},
		{
			"buffer":0,
			"byteLength":7548,
			"byteOffset":90540,
			"target":34962
		},
		{
			"buffer":0,
			"byteLength":5032,
			"byteOffset":98088,
			"target":34962
		},
		{
			"buffer":0,
			"byteLength":10064,
			"byteOffset":103120,
			"target":34962
		},
		{
			"buffer":0,
			"byteLength":7548,
			"byteOffset":113184,
			"target":34962
		},
		{
			"buffer":0,
			"byteLength":7548,
			"byteOffset":120732,
			"target":34962
		},
		{
			"buffer":0,
			"byteLength":5032,
			"byteOffset":128280,
			"target":34962
		},
		{
			"buffer":0,
			"byteLength":10064,
			"byteOffset":133312,
			"target":34962
		},
		{
			"buffer":0,
			"byteLength":7548,
			"byteOffset":143376,
			"target":34962
		},
		{
			"buffer":0,
			"byteLength":7548,
			"byteOffset":150924,
			"target":34962
		},
		{
			"buffer":0,
			"byteLength":5032,
			"byteOffset":158472,
			"target":34962
		},
		{
			"buffer":0,
			"byteLength":10064,
			"byteOffset":163504,
			"target":34962
		},
		{
			"buffer":0,
			"byteLength":162984,
			"byteOffset":173568,
			"target":34962
		},
		{
			"buffer":0,
			"byteLength":162984,
			"byteOffset":336552,
			"target":34962
		},
		{
			"buffer":0,
			"byteLength":108656,
			"byteOffset":499536,
			"target":34962
		},
		{
			"buffer":0,
			"byteLength":217312,
			"byteOffset":608192,
			"target":34962
		},
		{
			"buffer":0,
			"byteLength":147456,
			"byteOffset":825504,
			"target":34963
		},
		{
			"buffer":0,
			"byteLength":780,
			"byteOffset":972960,
			"target":34962
		},
		{
			"buffer":0,
			"byteLength":780,
			"byteOffset":973740,
			"target":34962
		},
		{
			"buffer":0,
			"byteLength":520,
			"byteOffset":974520,
			"target":34962
		},
		{
			"buffer":0,
			"byteLength":372,
			"byteOffset":975040,
			"target":34963
		},
		{
			"buffer":0,
			"byteLength":294432,
			"byteOffset":975412,
			"target":34962
		},
		{
			"buffer":0,
			"byteLength":294432,
			"byteOffset":1269844,
			"target":34962
		},
		{
			"buffer":0,
			"byteLength":196288,
			"byteOffset":1564276,
			"target":34962
		},
		{
			"buffer":0,
			"byteLength":392576,
			"byteOffset":1760564,
			"target":34962
		},
		{
			"buffer":0,
			"byteLength":73728,
			"byteOffset":2153140,
			"target":34963
		}
	],
	"samplers":[
		{
			"magFilter":9729,
			"minFilter":9987
		}
	],
	"buffers":[
		{
			"byteLength":2226868,
			"uri":"MotionProperties.bin"
		}
	]
}
