{
  "extensionsUsed": [
    "KHR_implicit_shapes",
    "KHR_physics_rigid_bodies"
  ],
  "extensionsRequired": [
    "KHR_implicit_shapes",
    "KHR_physics_rigid_bodies"
  ],
  "accessors": [
    {
      "bufferView": 0,
      "componentType": 5126,
      "count": 34,
      "type": "VEC3",
      "max": [
        10.0,
        0.5,
        9.945219
      ],
      "min": [
        -9.781476,
        -0.5,
        -9.945219
      ],
      "name": "Positions Accessor"
    },
    {
      "bufferView": 1,
      "componentType": 5125,
      "count": 192,
      "type": "SCALAR",
      "name": "Indices Accessor"
    },
    {
      "bufferView": 2,
      "componentType": 5126,
      "count": 4,
      "type": "VEC3",
      "max": [
        0.5,
        0.5,
        0.5
      ],
      "min": [
        -0.5,
        0.0,
        -0.5
      ],
      "name": "Positions Accessor"
    },
    {
      "bufferView": 3,
      "componentType": 5125,
      "count": 12,
      "type": "SCALAR",
      "name": "Indices Accessor"
    }
  ],
  "asset": {
    "generator": "glTF Asset Generator",
    "version": "2.0"
  },
  "buffers": [
    {
      "uri": "RigidBodies_ColliderTypeMatrix_23.bin",
      "byteLength": 1272
    }
  ],
  "bufferViews": [
    {
      "buffer": 0,
      "byteLength": 408,
      "name": "Positions"
    },
    {
      "buffer": 0,
      "byteOffset": 408,
      "byteLength": 768,
      "name": "Indices"
    },
    {
      "buffer": 0,
      "byteOffset": 1176,
      "byteLength": 48,
      "name": "Positions"
    },
    {
      "buffer": 0,
      "byteOffset": 1224,
      "byteLength": 48,
      "name": "Indices"
    }
  ],
  "meshes": [
    {
      "primitives": [
        {
          "attributes": {
            "POSITION": 0
          },
          "indices": 1
        }
      ]
    },
    {
      "primitives": [
        {
          "attributes": {
            "POSITION": 2
          },
          "indices": 3
        }
      ]
    },
    {
      "primitives": [
        {
          "attributes": {
            "POSITION": 2
          },
          "indices": 3
        }
      ]
    }
  ],
  "nodes": [
    {
      "mesh": 0,
      "translation": [
        0.0,
        0.5,
        0.0
      ],
      "extensions": {
        "KHR_physics_rigid_bodies": {
          "collider": {
            "geometry": {
              "shape": 0
            }
          }
        }
      }
    },
    {
      "mesh": 1,
      "translation": [
        0.0,
        3.0,
        0.0
      ],
      "extensions": {
        "KHR_physics_rigid_bodies": {
          "motion": {
            "mass": 1.0
          },
          "collider": {
            "geometry": {
              "node": 2
            }
          }
        }
      }
    },
    {
      "mesh": 2
    }
  ],
  "scene": 0,
  "scenes": [
    {
      "nodes": [
        0,
        1
      ]
    }
  ],
  "extensions": {
    "KHR_implicit_shapes": {
      "shapes": [
        {
          "type": "cylinder",
          "cylinder": {
            "height": 1.0,
            "radiusBottom": 10.0,
            "radiusTop": 10.0
          }
        }
      ]
    }
  }
}