{
	"asset":{
		"generator":"Khronos glTF Blender I/O v4.4.55",
		"version":"2.0"
	},
	"extensionsUsed":[
		"KHR_lights_punctual",
		"KHR_implicit_shapes",
		"KHR_physics_rigid_bodies"
	],
	"extensionsRequired":[
		"KHR_lights_punctual"
	],
	"extensions":{
		"KHR_lights_punctual":{
			"lights":[
				{
					"color":[
						1,
						1,
						1
					],
					"intensity":54.35141306588226,
					"type":"point",
					"name":"Light"
				}
			]
		},
		"KHR_implicit_shapes":{
			"shapes":[
				{
					"type":"box",
					"box":{
						"size":[
							10.376665115356445,
							0.3404197692871094,
							10.376665115356445
						]
					}
				},
				{
					"type":"sphere",
					"sphere":{
						"radius":0.11820516580760172
					}
				},
				{
					"type":"sphere",
					"sphere":{
						"radius":0.9308800591777242
					}
				}
			]
		},
		"KHR_physics_rigid_bodies":{
			"physicsMaterials":[
				{
					"staticFriction":0,
					"dynamicFriction":0,
					"restitution":0
				},
				{
					"staticFriction":0.5,
					"dynamicFriction":0.5,
					"restitution":0.949999988079071,
					"restitutionCombine":"maximum"
				},
				{
					"staticFriction":0.5,
					"dynamicFriction":0.5,
					"restitution":0.2033868134021759
				}
			],
			"collisionFilters":[
				{
					"collisionSystems":[
						"System_0"
					],
					"collideWithSystems":[
						"System_0"
					]
				}
			]
		}
	},
	"scene":0,
	"scenes":[
		{
			"name":"Scene",
			"nodes":[
				0,
				1,
				2,
				3,
				4
			]
		}
	],
	"nodes":[
		{
			"extensions":{
				"KHR_lights_punctual":{
					"light":0
				}
			},
			"name":"Light",
			"rotation":[
				-0.28416627645492554,
				0.7269423007965088,
				0.34203392267227173,
				0.5232754945755005
			],
			"translation":[
				4.076245307922363,
				5.903861999511719,
				-1.0054539442062378
			]
		},
		{
			"camera":0,
			"name":"Camera",
			"rotation":[
				-0.14519648253917694,
				0,
				0,
				0.9894028902053833
			],
			"translation":[
				-0.021041998639702797,
				2.5271661281585693,
				7.237770080566406
			]
		},
		{
			"extensions":{
				"KHR_physics_rigid_bodies":{
					"collider":{
						"geometry":{
							"shape":0
						},
						"physicsMaterial":0,
						"collisionFilter":0
					}
				}
			},
			"mesh":0,
			"name":"Floor",
			"scale":[
				0.16844403743743896,
				0.16844403743743896,
				0.16844403743743896
			]
		},
		{
			"extensions":{
				"KHR_physics_rigid_bodies":{
					"motion":{
						"mass":0.5799999833106995
					},
					"collider":{
						"geometry":{
							"shape":1
						},
						"physicsMaterial":1,
						"collisionFilter":0
					}
				}
			},
			"mesh":1,
			"name":"Basketball",
			"translation":[
				-0.5,
				1.5,
				0
			]
		},
		{
			"extensions":{
				"KHR_physics_rigid_bodies":{
					"motion":{
						"mass":1
					},
					"collider":{
						"geometry":{
							"shape":2
						},
						"physicsMaterial":2,
						"collisionFilter":0
					}
				}
			},
			"mesh":2,
			"name":"Bowlingball",
			"scale":[
				0.11691740900278091,
				0.11691740900278091,
				0.11691740900278091
			],
			"translation":[
				0.5,
				1.5,
				0
			]
		}
	],
	"cameras":[
		{
			"name":"Camera",
			"perspective":{
				"aspectRatio":1.7777777777777777,
				"yfov":0.39959652046304894,
				"zfar":100,
				"znear":0.10000000149011612
			},
			"type":"perspective"
		}
	],
	"materials":[
		{
			"doubleSided":true,
			"name":"FloorBaked",
			"pbrMetallicRoughness":{
				"baseColorTexture":{
					"index":0
				},
				"metallicFactor":0,
				"roughnessFactor":0.5
			}
		},
		{
			"doubleSided":true,
			"name":"Basketball",
			"normalTexture":{
				"index":1
			},
			"pbrMetallicRoughness":{
				"baseColorTexture":{
					"index":2
				},
				"metallicFactor":0.6363636255264282,
				"metallicRoughnessTexture":{
					"index":3
				}
			}
		},
		{
			"doubleSided":true,
			"name":"BowlingBallBaked.002",
			"pbrMetallicRoughness":{
				"baseColorTexture":{
					"index":4
				},
				"metallicFactor":0,
				"metallicRoughnessTexture":{
					"index":5
				}
			}
		}
	],
	"meshes":[
		{
			"name":"Cube.001",
			"primitives":[
				{
					"attributes":{
						"POSITION":0,
						"NORMAL":1,
						"TEXCOORD_0":2
					},
					"indices":3,
					"material":0
				}
			]
		},
		{
			"name":"Mesh",
			"primitives":[
				{
					"attributes":{
						"POSITION":4,
						"NORMAL":5,
						"TEXCOORD_0":6
					},
					"indices":7,
					"material":1
				}
			]
		},
		{
			"name":"Icosphere",
			"primitives":[
				{
					"attributes":{
						"POSITION":8,
						"NORMAL":9,
						"TEXCOORD_0":10
					},
					"indices":11,
					"material":2
				}
			]
		}
	],
	"textures":[
		{
			"sampler":0,
			"source":0
		},
		{
			"sampler":0,
			"source":1
		},
		{
			"sampler":0,
			"source":2
		},
		{
			"sampler":0,
			"source":3
		},
		{
			"sampler":0,
			"source":4
		},
		{
			"sampler":0,
			"source":5
		}
	],
	"images":[
		{
			"mimeType":"image/png",
			"name":"SlopedFloor_color",
			"uri":"SlopedFloor_color.png"
		},
		{
			"mimeType":"image/png",
			"name":"BasketballNormal",
			"uri":"BasketballNormal.png"
		},
		{
			"mimeType":"image/png",
			"name":"BasketballDiffuse",
			"uri":"BasketballDiffuse.png"
		},
		{
			"mimeType":"image/png",
			"name":"BasketballRoughness",
			"uri":"BasketballRoughness.png"
		},
		{
			"mimeType":"image/png",
			"name":"Icosphere_color",
			"uri":"Icosphere_color.png"
		},
		{
			"mimeType":"image/png",
			"name":"Icosphere_roughness",
			"uri":"Icosphere_roughness.png"
		}
	],
	"accessors":[
		{
			"bufferView":0,
			"componentType":5126,
			"count":24,
			"max":[
				5.188332557678223,
				0.1702098846435547,
				5.188332557678223
			],
			"min":[
				-5.188332557678223,
				-0.1702098846435547,
				-5.188332557678223
			],
			"type":"VEC3"
		},
		{
			"bufferView":1,
			"componentType":5126,
			"count":24,
			"type":"VEC3"
		},
		{
			"bufferView":2,
			"componentType":5126,
			"count":24,
			"type":"VEC2"
		},
		{
			"bufferView":3,
			"componentType":5123,
			"count":36,
			"type":"SCALAR"
		},
		{
			"bufferView":4,
			"componentType":5126,
			"count":1637,
			"max":[
				0.11753767728805542,
				0.11820516735315323,
				0.11758241057395935
			],
			"min":[
				-0.11753766238689423,
				-0.11820516735315323,
				-0.11758241057395935
			],
			"type":"VEC3"
		},
		{
			"bufferView":5,
			"componentType":5126,
			"count":1637,
			"type":"VEC3"
		},
		{
			"bufferView":6,
			"componentType":5126,
			"count":1637,
			"type":"VEC2"
		},
		{
			"bufferView":7,
			"componentType":5123,
			"count":5760,
			"type":"SCALAR"
		},
		{
			"bufferView":8,
			"componentType":5126,
			"count":1438,
			"max":[
				0.923734188079834,
				0.9258288741111755,
				0.9248635768890381
			],
			"min":[
				-0.923734188079834,
				-0.9303051233291626,
				-0.9248635768890381
			],
			"type":"VEC3"
		},
		{
			"bufferView":9,
			"componentType":5126,
			"count":1438,
			"type":"VEC3"
		},
		{
			"bufferView":10,
			"componentType":5126,
			"count":1438,
			"type":"VEC2"
		},
		{
			"bufferView":11,
			"componentType":5123,
			"count":6984,
			"type":"SCALAR"
		}
	],
	"bufferViews":[
		{
			"buffer":0,
			"byteLength":288,
			"byteOffset":0,
			"target":34962
		},
		{
			"buffer":0,
			"byteLength":288,
			"byteOffset":288,
			"target":34962
		},
		{
			"buffer":0,
			"byteLength":192,
			"byteOffset":576,
			"target":34962
		},
		{
			"buffer":0,
			"byteLength":72,
			"byteOffset":768,
			"target":34963
		},
		{
			"buffer":0,
			"byteLength":19644,
			"byteOffset":840,
			"target":34962
		},
		{
			"buffer":0,
			"byteLength":19644,
			"byteOffset":20484,
			"target":34962
		},
		{
			"buffer":0,
			"byteLength":13096,
			"byteOffset":40128,
			"target":34962
		},
		{
			"buffer":0,
			"byteLength":11520,
			"byteOffset":53224,
			"target":34963
		},
		{
			"buffer":0,
			"byteLength":17256,
			"byteOffset":64744,
			"target":34962
		},
		{
			"buffer":0,
			"byteLength":17256,
			"byteOffset":82000,
			"target":34962
		},
		{
			"buffer":0,
			"byteLength":11504,
			"byteOffset":99256,
			"target":34962
		},
		{
			"buffer":0,
			"byteLength":13968,
			"byteOffset":110760,
			"target":34963
		}
	],
	"samplers":[
		{
			"magFilter":9729,
			"minFilter":9987
		}
	],
	"buffers":[
		{
			"byteLength":124728,
			"uri":"Materials_Restitution.bin"
		}
	]
}
