{
	"asset":{
		"generator":"Khronos glTF Blender I/O v4.1.63",
		"version":"2.0"
	},
	"extensionsUsed":[
		"KHR_collision_shapes",
		"KHR_physics_rigid_bodies"
	],
	"extensions":{
		"KHR_collision_shapes":{
			"shapes":[
				{
					"type":"mesh",
					"mesh":{
						"mesh":0
					},
					"extensions":{
						"KHR_physics_rigid_bodies":{
							"convexHull":true
						}
					}
				},
				{
					"type":"box",
					"box":{
						"size":[
							0.5,
							0.5,
							0.5
						]
					}
				}
			]
		},
		"KHR_physics_rigid_bodies":{
			"physicsMaterials":[
				{
					"staticFriction":0.5,
					"dynamicFriction":0.5,
					"restitution":0
				}
			],
			"collisionFilters":[
				{
					"collisionSystems":[
						"System_0"
					],
					"collideWithSystems":[
						"System_0"
					]
				}
			],
			"physicsJoints":[
				{
					"limits":[
						{
							"linearAxes":[
								0
							],
							"min":0,
							"max":0
						},
						{
							"linearAxes":[
								2
							],
							"min":0,
							"max":0
						},
						{
							"linearAxes":[
								1
							],
							"min":0.5,
							"max":1.5
						},
						{
							"angularAxes":[
								0
							],
							"min":0,
							"max":0
						},
						{
							"angularAxes":[
								2
							],
							"min":0,
							"max":0
						},
						{
							"angularAxes":[
								1
							],
							"min":0,
							"max":0
						}
					],
					"drives":[
						{
							"type":"linear",
							"mode":"force",
							"axis":1,
							"positionTarget":1.2000000476837158,
							"velocityTarget":0,
							"stiffness":10,
							"damping":0.10000000149011612
						}
					]
				}
			]
		}
	},
	"scene":0,
	"scenes":[
		{
			"name":"Scene",
			"nodes":[
				0,
				1,
				3,
				5,
				6
			]
		}
	],
	"nodes":[
		{
			"camera":0,
			"name":"Camera",
			"rotation":[
				-0.10123094171285629,
				0,
				0,
				0.994862973690033
			],
			"translation":[
				0.45463621616363525,
				4.920000076293945,
				15.29797649383545
			]
		},
		{
			"extensions":{
				"KHR_physics_rigid_bodies":{
					"collider":{
						"shape":0,
						"physicsMaterial":0,
						"collisionFilter":0
					}
				}
			},
			"mesh":0,
			"name":"Cube.018",
			"translation":[
				4.345885276794434,
				0.36057305335998535,
				0
			]
		},
		{
			"name":"jointSpaceB",
			"rotation":[
				0,
				0,
				0,
				1
			],
			"translation":[
				0,
				-1.0499999523162842,
				0
			]
		},
		{
			"children":[
				2
			],
			"extensions":{
				"KHR_physics_rigid_bodies":{
					"motion":{
						"mass":1
					},
					"collider":{
						"shape":1,
						"physicsMaterial":0,
						"collisionFilter":0
					}
				}
			},
			"mesh":1,
			"name":"Cube.019",
			"translation":[
				4.345915794372559,
				3.299999952316284,
				0
			]
		},
		{
			"extensions":{
				"KHR_physics_rigid_bodies":{
					"joint":{
						"connectedNode":2,
						"joint":0
					}
				}
			},
			"name":"jointSpaceA",
			"rotation":[
				0,
				0,
				0,
				1
			],
			"translation":[
				0,
				0.25,
				0
			]
		},
		{
			"children":[
				4
			],
			"extensions":{
				"KHR_physics_rigid_bodies":{
					"motion":{
						"isKinematic":true,
						"mass":1
					},
					"collider":{
						"shape":1,
						"physicsMaterial":0,
						"collisionFilter":0
					}
				}
			},
			"mesh":2,
			"name":"Cube.020",
			"translation":[
				4.345915794372559,
				2,
				0
			]
		},
		{
			"extensions":{
				"KHR_physics_rigid_bodies":{}
			},
			"name":"PositionTarget",
			"translation":[
				4.345915794372559,
				2.25,
				0
			]
		}
	],
	"cameras":[
		{
			"name":"Camera.001",
			"perspective":{
				"aspectRatio":1.7777777777777777,
				"yfov":0.39959652046304894,
				"zfar":1000,
				"znear":0.10000000149011612
			},
			"type":"perspective"
		}
	],
	"materials":[
		{
			"doubleSided":true,
			"name":"StaticMaterialBaked.001",
			"pbrMetallicRoughness":{
				"baseColorTexture":{
					"index":0
				},
				"metallicFactor":0,
				"roughnessFactor":0.5
			}
		},
		{
			"doubleSided":true,
			"name":"Yellowish",
			"pbrMetallicRoughness":{
				"baseColorFactor":[
					0.8000000715255737,
					0.7555356621742249,
					0.0002703802892938256,
					1
				],
				"metallicFactor":0.5,
				"roughnessFactor":0.800000011920929
			}
		}
	],
	"meshes":[
		{
			"name":"Cube.018",
			"primitives":[
				{
					"attributes":{
						"POSITION":0,
						"NORMAL":1,
						"TEXCOORD_0":2
					},
					"indices":3,
					"material":0
				}
			]
		},
		{
			"name":"Cube.019",
			"primitives":[
				{
					"attributes":{
						"POSITION":4,
						"NORMAL":5,
						"TEXCOORD_0":6
					},
					"indices":3,
					"material":1
				}
			]
		},
		{
			"name":"Cube.020",
			"primitives":[
				{
					"attributes":{
						"POSITION":7,
						"NORMAL":8,
						"TEXCOORD_0":9
					},
					"indices":10,
					"material":1
				}
			]
		}
	],
	"textures":[
		{
			"sampler":0,
			"source":0
		}
	],
	"images":[
		{
			"mimeType":"image/png",
			"name":"GroundBox_color",
			"uri":"GroundBox_color.png"
		}
	],
	"accessors":[
		{
			"bufferView":0,
			"componentType":5126,
			"count":24,
			"max":[
				1,
				0.08398354053497314,
				1
			],
			"min":[
				-1,
				-0.08398330211639404,
				-1
			],
			"type":"VEC3"
		},
		{
			"bufferView":1,
			"componentType":5126,
			"count":24,
			"type":"VEC3"
		},
		{
			"bufferView":2,
			"componentType":5126,
			"count":24,
			"type":"VEC2"
		},
		{
			"bufferView":3,
			"componentType":5123,
			"count":36,
			"type":"SCALAR"
		},
		{
			"bufferView":4,
			"componentType":5126,
			"count":24,
			"max":[
				0.25,
				0.25,
				0.25
			],
			"min":[
				-0.25,
				-0.25,
				-0.25
			],
			"type":"VEC3"
		},
		{
			"bufferView":5,
			"componentType":5126,
			"count":24,
			"type":"VEC3"
		},
		{
			"bufferView":6,
			"componentType":5126,
			"count":24,
			"type":"VEC2"
		},
		{
			"bufferView":7,
			"componentType":5126,
			"count":216,
			"max":[
				0.25,
				0.25,
				0.25
			],
			"min":[
				-0.25,
				-0.25,
				-0.25
			],
			"type":"VEC3"
		},
		{
			"bufferView":8,
			"componentType":5126,
			"count":216,
			"type":"VEC3"
		},
		{
			"bufferView":9,
			"componentType":5126,
			"count":216,
			"type":"VEC2"
		},
		{
			"bufferView":10,
			"componentType":5123,
			"count":324,
			"type":"SCALAR"
		}
	],
	"bufferViews":[
		{
			"buffer":0,
			"byteLength":288,
			"byteOffset":0,
			"target":34962
		},
		{
			"buffer":0,
			"byteLength":288,
			"byteOffset":288,
			"target":34962
		},
		{
			"buffer":0,
			"byteLength":192,
			"byteOffset":576,
			"target":34962
		},
		{
			"buffer":0,
			"byteLength":72,
			"byteOffset":768,
			"target":34963
		},
		{
			"buffer":0,
			"byteLength":288,
			"byteOffset":840,
			"target":34962
		},
		{
			"buffer":0,
			"byteLength":288,
			"byteOffset":1128,
			"target":34962
		},
		{
			"buffer":0,
			"byteLength":192,
			"byteOffset":1416,
			"target":34962
		},
		{
			"buffer":0,
			"byteLength":2592,
			"byteOffset":1608,
			"target":34962
		},
		{
			"buffer":0,
			"byteLength":2592,
			"byteOffset":4200,
			"target":34962
		},
		{
			"buffer":0,
			"byteLength":1728,
			"byteOffset":6792,
			"target":34962
		},
		{
			"buffer":0,
			"byteLength":648,
			"byteOffset":8520,
			"target":34963
		}
	],
	"samplers":[
		{
			"magFilter":9729,
			"minFilter":9987
		}
	],
	"buffers":[
		{
			"byteLength":9168,
			"uri":"JointTypes.bin"
		}
	]
}
