{
	"asset":{
		"generator":"Khronos glTF Blender I/O v4.4.55",
		"version":"2.0"
	},
	"extensionsUsed":[
		"KHR_lights_punctual",
		"KHR_implicit_shapes",
		"KHR_physics_rigid_bodies"
	],
	"extensionsRequired":[
		"KHR_lights_punctual"
	],
	"extensions":{
		"KHR_lights_punctual":{
			"lights":[
				{
					"color":[
						1,
						1,
						1
					],
					"intensity":54.35141306588226,
					"spot":{
						"innerConeAngle":0.556323685321221,
						"outerConeAngle":0.6544984579086304
					},
					"type":"spot",
					"name":"Light"
				}
			]
		},
		"KHR_implicit_shapes":{
			"shapes":[
				{
					"type":"box",
					"box":{
						"size":[
							3.131088972091675,
							0.6419965624809265,
							4.807734966278076
						]
					}
				},
				{
					"type":"box",
					"box":{
						"size":[
							0.6135247349739075,
							0.17837563157081604,
							0.2775302827358246
						]
					}
				},
				{
					"type":"box",
					"box":{
						"size":[
							10.376665115356445,
							0.3404197692871094,
							10.376665115356445
						]
					}
				}
			]
		},
		"KHR_physics_rigid_bodies":{
			"physicsMaterials":[
				{
					"staticFriction":0.5472973585128784,
					"dynamicFriction":0.5472973585128784,
					"restitution":0
				},
				{
					"staticFriction":0.02364865504205227,
					"dynamicFriction":0.02364865504205227,
					"restitution":0
				},
				{
					"staticFriction":0,
					"dynamicFriction":0,
					"restitution":0
				}
			],
			"collisionFilters":[
				{
					"collisionSystems":[
						"System_0"
					],
					"collideWithSystems":[
						"System_0"
					]
				}
			]
		}
	},
	"scene":0,
	"scenes":[
		{
			"name":"Scene",
			"nodes":[
				0,
				1,
				3,
				4,
				5
			]
		}
	],
	"nodes":[
		{
			"extensions":{
				"KHR_lights_punctual":{
					"light":0
				}
			},
			"name":"Light",
			"rotation":[
				-0.28416627645492554,
				0.7269423007965088,
				0.34203392267227173,
				0.5232754945755005
			],
			"translation":[
				6.580799579620361,
				9.417851448059082,
				-1.9711658954620361
			]
		},
		{
			"camera":0,
			"name":"Camera",
			"rotation":[
				-0.15270371735095978,
				-0.3801100552082062,
				-0.06378371268510818,
				0.9100162386894226
			],
			"translation":[
				-13.775691032409668,
				8.082464218139648,
				13.23838996887207
			]
		},
		{
			"mesh":0,
			"name":"HoneySurface"
		},
		{
			"children":[
				2
			],
			"extensions":{
				"KHR_physics_rigid_bodies":{
					"motion":{
						"mass":1
					},
					"collider":{
						"geometry":{
							"shape":0
						},
						"physicsMaterial":0,
						"collisionFilter":0
					}
				}
			},
			"mesh":1,
			"name":"HoneyCombWalls",
			"rotation":[
				0.4130883514881134,
				0,
				0,
				0.91069096326828
			],
			"scale":[
				0.46723151206970215,
				0.46723151206970215,
				0.46723151206970215
			],
			"translation":[
				1.6627352237701416,
				4.293732643127441,
				-3.7623164653778076
			]
		},
		{
			"extensions":{
				"KHR_physics_rigid_bodies":{
					"motion":{
						"mass":1
					},
					"collider":{
						"geometry":{
							"shape":1
						},
						"physicsMaterial":1,
						"collisionFilter":0
					}
				}
			},
			"mesh":2,
			"name":"Soap2.001",
			"rotation":[
				0.2973649799823761,
				-0.6407380700111389,
				-0.2964212894439697,
				0.6427777409553528
			],
			"scale":[
				3.5888543128967285,
				3.5888540744781494,
				3.5888543128967285
			],
			"translation":[
				-1.348071813583374,
				4.190501689910889,
				-3.8256332874298096
			]
		},
		{
			"extensions":{
				"KHR_physics_rigid_bodies":{
					"collider":{
						"geometry":{
							"shape":2
						},
						"physicsMaterial":2,
						"collisionFilter":0
					}
				}
			},
			"mesh":3,
			"name":"SlopedFloor",
			"rotation":[
				0.25288188457489014,
				0,
				0,
				0.9674971699714661
			],
			"translation":[
				0,
				1.2808959484100342,
				-1.0667122602462769
			]
		}
	],
	"cameras":[
		{
			"name":"Camera",
			"perspective":{
				"aspectRatio":1.7777777777777777,
				"yfov":0.39959652046304894,
				"zfar":100,
				"znear":0.10000000149011612
			},
			"type":"perspective"
		}
	],
	"materials":[
		{
			"alphaMode":"BLEND",
			"doubleSided":true,
			"name":"Honey",
			"pbrMetallicRoughness":{
				"baseColorFactor":[
					0.8000000715255737,
					0.2762853801250458,
					0.005892840214073658,
					0.8255813717842102
				],
				"metallicFactor":0,
				"roughnessFactor":0.07364341616630554
			}
		},
		{
			"doubleSided":true,
			"name":"HoneycombWalls",
			"pbrMetallicRoughness":{
				"baseColorFactor":[
					0.8000000715255737,
					0.6449140906333923,
					0.15321294963359833,
					1
				],
				"metallicFactor":0
			}
		},
		{
			"doubleSided":true,
			"name":"Material.001",
			"pbrMetallicRoughness":{
				"baseColorFactor":[
					0.8000000715255737,
					0.05420894920825958,
					0.36806991696357727,
					1
				],
				"metallicFactor":0,
				"roughnessFactor":0.5581947565078735
			}
		},
		{
			"doubleSided":true,
			"name":"SlopedFloor",
			"pbrMetallicRoughness":{
				"baseColorTexture":{
					"index":0
				},
				"metallicFactor":0,
				"roughnessFactor":0.5
			}
		}
	],
	"meshes":[
		{
			"name":"HoneyComb.001",
			"primitives":[
				{
					"attributes":{
						"POSITION":0,
						"NORMAL":1
					},
					"indices":2,
					"material":0
				}
			]
		},
		{
			"name":"HoneyComb",
			"primitives":[
				{
					"attributes":{
						"POSITION":3,
						"NORMAL":4
					},
					"indices":5,
					"material":1
				}
			]
		},
		{
			"name":"Cube.003",
			"primitives":[
				{
					"attributes":{
						"POSITION":6,
						"NORMAL":7,
						"TEXCOORD_0":8
					},
					"indices":9,
					"material":2
				},
				{
					"attributes":{
						"POSITION":10,
						"NORMAL":11,
						"TEXCOORD_0":12
					},
					"indices":13,
					"material":2
				}
			]
		},
		{
			"name":"Cube.001",
			"primitives":[
				{
					"attributes":{
						"POSITION":14,
						"NORMAL":15,
						"TEXCOORD_0":16
					},
					"indices":17,
					"material":3
				}
			]
		}
	],
	"textures":[
		{
			"sampler":0,
			"source":0
		}
	],
	"images":[
		{
			"mimeType":"image/png",
			"name":"SlopedFloor_color",
			"uri":"SlopedFloor_color.png"
		}
	],
	"accessors":[
		{
			"bufferView":0,
			"componentType":5126,
			"count":648,
			"max":[
				1.4655444622039795,
				0.24976839125156403,
				2.317265033721924
			],
			"min":[
				-1.4655444622039795,
				-0.24976839125156403,
				-2.317265033721924
			],
			"type":"VEC3"
		},
		{
			"bufferView":1,
			"componentType":5126,
			"count":648,
			"type":"VEC3"
		},
		{
			"bufferView":2,
			"componentType":5123,
			"count":3024,
			"type":"SCALAR"
		},
		{
			"bufferView":3,
			"componentType":5126,
			"count":810,
			"max":[
				1.5655444860458374,
				0.32099828124046326,
				2.403867483139038
			],
			"min":[
				-1.5655444860458374,
				-0.32099828124046326,
				-2.403867483139038
			],
			"type":"VEC3"
		},
		{
			"bufferView":4,
			"componentType":5126,
			"count":810,
			"type":"VEC3"
		},
		{
			"bufferView":5,
			"componentType":5123,
			"count":5064,
			"type":"SCALAR"
		},
		{
			"bufferView":6,
			"componentType":5126,
			"count":2736,
			"max":[
				0.30676236748695374,
				0.08918781578540802,
				0.1387651413679123
			],
			"min":[
				-0.30676236748695374,
				-0.06986423581838608,
				-0.1387651413679123
			],
			"type":"VEC3"
		},
		{
			"bufferView":7,
			"componentType":5126,
			"count":2736,
			"type":"VEC3"
		},
		{
			"bufferView":8,
			"componentType":5126,
			"count":2736,
			"type":"VEC2"
		},
		{
			"bufferView":9,
			"componentType":5123,
			"count":11262,
			"type":"SCALAR"
		},
		{
			"bufferView":10,
			"componentType":5126,
			"count":2436,
			"max":[
				0.21350470185279846,
				0.08735442906618118,
				0.06141560152173042
			],
			"min":[
				-0.21233993768692017,
				0.06715692579746246,
				-0.06703115999698639
			],
			"type":"VEC3"
		},
		{
			"bufferView":11,
			"componentType":5126,
			"count":2436,
			"type":"VEC3"
		},
		{
			"bufferView":12,
			"componentType":5126,
			"count":2436,
			"type":"VEC2"
		},
		{
			"bufferView":13,
			"componentType":5123,
			"count":7317,
			"type":"SCALAR"
		},
		{
			"bufferView":14,
			"componentType":5126,
			"count":24,
			"max":[
				5.188332557678223,
				0.1702098846435547,
				5.188332557678223
			],
			"min":[
				-5.188332557678223,
				-0.1702098846435547,
				-5.188332557678223
			],
			"type":"VEC3"
		},
		{
			"bufferView":15,
			"componentType":5126,
			"count":24,
			"type":"VEC3"
		},
		{
			"bufferView":16,
			"componentType":5126,
			"count":24,
			"type":"VEC2"
		},
		{
			"bufferView":17,
			"componentType":5123,
			"count":36,
			"type":"SCALAR"
		}
	],
	"bufferViews":[
		{
			"buffer":0,
			"byteLength":7776,
			"byteOffset":0,
			"target":34962
		},
		{
			"buffer":0,
			"byteLength":7776,
			"byteOffset":7776,
			"target":34962
		},
		{
			"buffer":0,
			"byteLength":6048,
			"byteOffset":15552,
			"target":34963
		},
		{
			"buffer":0,
			"byteLength":9720,
			"byteOffset":21600,
			"target":34962
		},
		{
			"buffer":0,
			"byteLength":9720,
			"byteOffset":31320,
			"target":34962
		},
		{
			"buffer":0,
			"byteLength":10128,
			"byteOffset":41040,
			"target":34963
		},
		{
			"buffer":0,
			"byteLength":32832,
			"byteOffset":51168,
			"target":34962
		},
		{
			"buffer":0,
			"byteLength":32832,
			"byteOffset":84000,
			"target":34962
		},
		{
			"buffer":0,
			"byteLength":21888,
			"byteOffset":116832,
			"target":34962
		},
		{
			"buffer":0,
			"byteLength":22524,
			"byteOffset":138720,
			"target":34963
		},
		{
			"buffer":0,
			"byteLength":29232,
			"byteOffset":161244,
			"target":34962
		},
		{
			"buffer":0,
			"byteLength":29232,
			"byteOffset":190476,
			"target":34962
		},
		{
			"buffer":0,
			"byteLength":19488,
			"byteOffset":219708,
			"target":34962
		},
		{
			"buffer":0,
			"byteLength":14634,
			"byteOffset":239196,
			"target":34963
		},
		{
			"buffer":0,
			"byteLength":288,
			"byteOffset":253832,
			"target":34962
		},
		{
			"buffer":0,
			"byteLength":288,
			"byteOffset":254120,
			"target":34962
		},
		{
			"buffer":0,
			"byteLength":192,
			"byteOffset":254408,
			"target":34962
		},
		{
			"buffer":0,
			"byteLength":72,
			"byteOffset":254600,
			"target":34963
		}
	],
	"samplers":[
		{
			"magFilter":9729,
			"minFilter":9987
		}
	],
	"buffers":[
		{
			"byteLength":254672,
			"uri":"Materials_Friction.bin"
		}
	]
}
