{
  "extensionsUsed": [
    "KHR_implicit_shapes",
    "KHR_physics_rigid_bodies"
  ],
  "extensionsRequired": [
    "KHR_implicit_shapes",
    "KHR_physics_rigid_bodies"
  ],
  "accessors": [
    {
      "bufferView": 0,
      "componentType": 5126,
      "count": 8,
      "type": "VEC3",
      "max": [
        0.5,
        0.5,
        0.5
      ],
      "min": [
        -0.5,
        -0.5,
        -0.5
      ],
      "name": "Positions Accessor"
    },
    {
      "bufferView": 1,
      "componentType": 5125,
      "count": 36,
      "type": "SCALAR",
      "name": "Indices Accessor"
    }
  ],
  "asset": {
    "generator": "glTF Asset Generator",
    "version": "2.0"
  },
  "buffers": [
    {
      "uri": "RigidBodies_Joint_06.bin",
      "byteLength": 240
    }
  ],
  "bufferViews": [
    {
      "buffer": 0,
      "byteLength": 96,
      "name": "Positions"
    },
    {
      "buffer": 0,
      "byteOffset": 96,
      "byteLength": 144,
      "name": "Indices"
    }
  ],
  "meshes": [
    {
      "primitives": [
        {
          "attributes": {
            "POSITION": 0
          },
          "indices": 1
        }
      ]
    }
  ],
  "nodes": [
    {
      "children": [
        1
      ],
      "mesh": 0,
      "rotation": [
        0.0,
        0.0,
        0.38268346,
        0.9238795
      ],
      "extensions": {
        "KHR_physics_rigid_bodies": {
          "collider": {
            "geometry": {
              "shape": 0
            }
          }
        }
      }
    },
    {
      "extensions": {
        "KHR_physics_rigid_bodies": {
          "joint": {
            "connectedNode": 2,
            "joint": 0,
            "enableCollision": true
          }
        }
      }
    },
    {},
    {
      "children": [
        2
      ],
      "mesh": 0,
      "rotation": [
        0.0,
        0.0,
        0.38268346,
        0.9238795
      ],
      "translation": [
        -1.4142137,
        1.4142134,
        0.0
      ],
      "extensions": {
        "KHR_physics_rigid_bodies": {
          "motion": {
            "mass": 1.0
          },
          "collider": {
            "geometry": {
              "shape": 0
            }
          }
        }
      }
    }
  ],
  "scene": 0,
  "scenes": [
    {
      "nodes": [
        0,
        3
      ]
    }
  ],
  "extensions": {
    "KHR_physics_rigid_bodies": {
      "physicsJoints": [
        {
          "limits": [
            {
              "min": 0.0,
              "max": 0.0,
              "linearAxes": [
                0,
                2
              ]
            },
            {
              "min": 0.0,
              "max": 0.0,
              "angularAxes": [
                0,
                1,
                2
              ]
            },
            {
              "min": -2.0,
              "max": 2.0,
              "linearAxes": [
                1
              ]
            }
          ]
        }
      ]
    },
    "KHR_implicit_shapes": {
      "shapes": [
        {
          "type": "box",
          "box": {}
        }
      ]
    }
  }
}